# xmcd CD database file
#
# Track frame offsets:
#	150
#	23125
#	44820
#	66883
#	88780
#	110808
#	132103
#	151123
#	171373
#	190783
#
# Disc length: 3029 seconds
#
# Revision: 0
# Processed by: cddbd v1.5.1PL2 Copyright (c) Steve Scherf et al.
# Submitted via: CDex 1.51
#
DISCID=880bd30a
DTITLE=Los Toros Band - Caliente
DYEAR=1993
DGENRE=Merengue
TTITLE0=Llego Tu Marido
TTITLE1=Dejame Participar En Tu Juego
TTITLE2=Lo Fogata
TTITLE3=Olvidarme De Ella
TTITLE4=I Will Always Love You
TTITLE5=Dejala Mia
TTITLE6=Si La Ven
TTITLE7=Fugitivo
TTITLE8=Amor Economico
TTITLE9=Homenaje a Rafael Solano
EXTD=YEAR: 1993
EXTT0=
EXTT1=
EXTT2=
EXTT3=
EXTT4=
EXTT5=
EXTT6=
EXTT7=
EXTT8=
EXTT9=
PLAYORDER=
